<?xml version="1.0" encoding="UTF-8" standalone="no"?>
<!-- Created with Inkscape (http://www.inkscape.org/) -->

<svg
   width="30.973877"
   height="30.986012"
   viewBox="0 0 30.973877 30.986012"
   version="1.1"
   id="svg1"
   xmlns="http://www.w3.org/2000/svg"
   xmlns:svg="http://www.w3.org/2000/svg">
  <defs
     id="defs1" />
  <g
     id="layer1"
     transform="translate(-0.52800715,-0.55472004)">
    <path
       d="m 19.441325,30.911168 c -1.025749,-0.01547 -2.295159,-0.344102 -3.568334,-1.462891 0,0 -0.999366,-0.923236 -1.474599,-5.179689 -0.356893,-3.196533 -0.482418,-4.582034 -0.482418,-4.582034 L 3.00199,19.649443 c 0,0 -2.48892827,-1.870896 -1.6911107,-3.352074 C 2.4404163,14.200347 0.84021681,13.182004 1.7941484,11.915774 4.1523475,8.7855485 1.3230269,8.4581325 2.6723679,6.9883795 4.2863872,5.2303295 3.446655,3.4620485 4.7636961,2.6357705 6.685922,1.4298145 7.1640695,1.2178015 7.1640695,1.2178015 l 23.7088145,-0.0332 V 17.227569 l -5.820272,-0.03515 -3.878877,3.783203 c 0,0 -0.288453,7.287092 0.501949,9.45899 0,0 -0.915539,0.496447 -2.234359,0.476561 z"
       style="opacity:1;fill:#000000;fill-opacity:1;stroke:#000000;stroke-width:1.258;stroke-dasharray:none"
       id="path6" />
  </g>
</svg>
