<?xml version="1.0" encoding="UTF-8" standalone="no"?>
<!-- Created with Inkscape (http://www.inkscape.org/) -->

<svg
   width="30.973877"
   height="30.986015"
   viewBox="0 0 30.973877 30.986015"
   version="1.1"
   id="svg1"
   xmlns="http://www.w3.org/2000/svg"
   xmlns:svg="http://www.w3.org/2000/svg">
  <defs
     id="defs1" />
  <g
     id="layer1"
     transform="translate(-0.52800715,-0.55472004)">
    <path
       d="m 19.441325,1.1842877 c -1.025749,0.01547 -2.295159,0.344102 -3.568334,1.462891 0,0 -0.999366,0.923236 -1.474599,5.179689 C 14.041499,11.0234 13.915974,12.408901 13.915974,12.408901 L 3.00199,12.446012 c 0,0 -2.48892827,1.870896 -1.6911107,3.352074 1.129537,2.097022 -0.47066249,3.115365 0.4832691,4.381595 2.3581991,3.130226 -0.4711215,3.457642 0.8782195,4.927395 1.6140193,1.75805 0.7742871,3.526331 2.0913282,4.352609 1.9222259,1.205956 2.4003734,1.417969 2.4003734,1.417969 l 23.7088145,0.0332 V 14.867886 l -5.820272,0.03515 -3.878877,-3.783203 c 0,0 -0.288453,-7.2870913 0.501949,-9.4589893 0,0 -0.915539,-0.496447 -2.234359,-0.476561 z"
       style="opacity:1;fill:#000000;fill-opacity:1;stroke:#000000;stroke-width:1.258;stroke-dasharray:none"
       id="path6" />
  </g>
</svg>
